<mxfile host="app.diagrams.net" modified="2023-07-10T10:49:53.458Z" agent="Mozilla/5.0 (Macintosh; Intel Mac OS X 10_15_7) AppleWebKit/537.36 (KHTML, like Gecko) Chrome/114.0.0.0 Safari/537.36" version="21.6.1" etag="xadlr_KtyX2IHytuXCjA" type="github">
  <diagram name="Page-1" id="5cobU35hBNhRzAu-DEX_">
    <mxGraphModel>
      <root>
        <mxCell id="0" />
        <mxCell id="1" parent="0" />
      </root>
    </mxGraphModel>
  </diagram>
</mxfile>
